<svg xmlns="http://www.w3.org/2000/svg" version="1.1" xmlns:xlink="http://www.w3.org/1999/xlink" viewBox="0 0 200 200" width="200" height="200"><metadata><rdf:RDF xmlns:rdf="http://www.w3.org/1999/02/22-rdf-syntax-ns#" xmlns:dc="http://purl.org/dc/elements/1.1/"><rdf:Description><dc:creator>RealFaviconGenerator</dc:creator><dc:source>https://realfavicongenerator.net</dc:source></rdf:Description></rdf:RDF></metadata><rect width="200" height="200" fill="url('#gradient')"></rect><defs><linearGradient id="gradient" gradientTransform="rotate(45 0.5 0.5)"><stop offset="0%" stop-color="#d6ce5c"></stop><stop offset="100%" stop-color="#d97e71"></stop></linearGradient></defs><g><g fill="#2e3f4e" transform="matrix(3.4889267461669506,0,0,3.4889267461669506,8.779549034734401,126.18427714050527)" stroke="#5b8d84" stroke-width="0.2"><path d="M12.24-14.22L12.24-11.57L7.97-11.57L7.97 0L4.54 0L4.54-11.57L0.35-11.57L0.35-14.22L12.24-14.22ZM21.13 0L17.84 0Q17.67-0.32 17.53-0.95L17.53-0.95Q16.62 0.20 14.99 0.20L14.99 0.20Q13.50 0.20 12.45-0.71Q11.41-1.61 11.41-2.98L11.41-2.98Q11.41-4.70 12.68-5.58Q13.95-6.46 16.37-6.46L16.37-6.46L17.38-6.46L17.38-7.01Q17.38-8.47 16.12-8.47L16.12-8.47Q14.95-8.47 14.95-7.31L14.95-7.31L11.66-7.31Q11.66-8.85 12.96-9.80Q14.27-10.76 16.29-10.76Q18.31-10.76 19.48-9.78Q20.65-8.79 20.68-7.07L20.68-7.07L20.68-2.39Q20.70-0.94 21.13-0.17L21.13-0.17L21.13 0ZM15.78-2.15L15.78-2.15Q16.40-2.15 16.80-2.41Q17.21-2.68 17.38-3.01L17.38-3.01L17.38-4.70L16.43-4.70Q14.71-4.70 14.71-3.15L14.71-3.15Q14.71-2.71 15.01-2.43Q15.31-2.15 15.78-2.15ZM26.53 0L23.23 0L23.23-8.28L21.70-8.28L21.70-10.57L23.23-10.57L23.23-11.41Q23.23-13.21 24.30-14.21Q25.36-15.21 27.29-15.21L27.29-15.21Q27.99-15.21 28.83-15L28.83-15L28.84-12.58Q28.54-12.67 28.03-12.67L28.03-12.67Q26.53-12.67 26.53-11.38L26.53-11.38L26.53-10.57L28.59-10.57L28.59-8.28L26.53-8.28L26.53 0ZM35.28-2.97L35.28-2.97Q35.28-3.39 34.84-3.64Q34.40-3.90 33.17-4.17Q31.94-4.44 31.14-4.89Q30.34-5.33 29.92-5.97Q29.50-6.60 29.50-7.42L29.50-7.42Q29.50-8.88 30.70-9.82Q31.90-10.76 33.85-10.76L33.85-10.76Q35.94-10.76 37.21-9.81Q38.48-8.87 38.48-7.32L38.48-7.32L35.18-7.32Q35.18-8.59 33.84-8.59L33.84-8.59Q33.32-8.59 32.97-8.31Q32.62-8.02 32.62-7.59L32.62-7.59Q32.62-7.15 33.05-6.88Q33.48-6.60 34.42-6.43Q35.36-6.25 36.07-6.01L36.07-6.01Q38.46-5.19 38.46-3.07L38.46-3.07Q38.46-1.62 37.17-0.71Q35.89 0.20 33.85 0.20L33.85 0.20Q32.49 0.20 31.43-0.29Q30.36-0.78 29.77-1.62Q29.17-2.46 29.17-3.39L29.17-3.39L32.25-3.39Q32.27-2.66 32.73-2.32Q33.20-1.98 33.94-1.98L33.94-1.98Q34.61-1.98 34.95-2.26Q35.28-2.53 35.28-2.97ZM43.47-10.57L43.47 0L40.17 0L40.17-10.57L43.47-10.57ZM39.97-13.29L39.97-13.29Q39.97-13.99 40.48-14.44Q40.99-14.89 41.80-14.89Q42.61-14.89 43.12-14.44Q43.62-13.99 43.62-13.29Q43.62-12.59 43.12-12.14Q42.61-11.69 41.80-11.69Q40.99-11.69 40.48-12.14Q39.97-12.59 39.97-13.29ZM51.94-10.64L51.88-7.59L50.80-7.67Q49.25-7.67 48.81-6.69L48.81-6.69L48.81 0L45.52 0L45.52-10.57L48.60-10.57L48.71-9.21Q49.54-10.76 51.03-10.76L51.03-10.76Q51.55-10.76 51.94-10.64L51.94-10.64Z"></path></g></g></svg>